<?xml version="1.0" encoding="iso-8859-1"?>
<!-- Uploaded to: SVG Repo, www.svgrepo.com, Generator: SVG Repo Mixer Tools -->
<svg height="800px" width="800px" version="1.1" id="Capa_1" xmlns="http://www.w3.org/2000/svg" xmlns:xlink="http://www.w3.org/1999/xlink" 
	 viewBox="0 0 510.177 510.177" xml:space="preserve">
<g>
	<g>
		<path style="fill:#010002;" d="M219.784,510.177c-0.394,0-0.794-0.042-1.193-0.125c-2.781-0.567-4.773-3.007-4.773-5.842V344.095
			h-64.645c-1.999,0-3.872-1.002-4.976-2.673s-1.301-3.783-0.513-5.627L284.901,3.637c1.11-2.608,3.89-4.087,6.677-3.514
			c2.781,0.567,4.779,3.013,4.779,5.848v160.109h64.645c2.005,0,3.867,1.002,4.976,2.673c1.11,1.671,1.301,3.783,0.513,5.627
			l-141.218,332.17C224.325,508.78,222.141,510.177,219.784,510.177z M158.194,332.161h61.59c3.294,0,5.967,2.667,5.967,5.967
			v136.796l126.235-296.905H290.39c-3.3,0-5.967-2.673-5.967-5.967V35.255L158.194,332.161z"/>
	</g>
</g>
</svg>